<svg width="145" height="32" viewBox="0 0 145 32" fill="none" xmlns="http://www.w3.org/2000/svg">
<g clip-path="url(#clip0_17_211)">
<path d="M16 0C20.2434 3.20373e-07 24.3135 1.68535 27.3141 4.68594C27.8526 5.22446 28.3483 5.79775 28.8 6.4H16C13.4539 6.4 11.0121 7.41137 9.21168 9.21168C7.41137 11.0121 6.4 13.4539 6.4 16H16L29.5282 7.45547C30.5325 9.04592 31.2489 10.8022 31.6438 12.6422L25.6 16H32L31.9953 16.3977C31.8935 20.497 30.2208 24.4074 27.3141 27.3141C24.3135 30.3146 20.2434 32 16 32C11.7566 32 7.68652 30.3146 4.68594 27.3141C4.14741 26.7755 3.65167 26.2022 3.2 25.6H16C18.5461 25.6 20.9879 24.5886 22.7883 22.7883C24.4762 21.1004 25.4706 18.8486 25.5883 16.4758L25.6 16H16L2.47187 24.543C1.46762 22.9525 0.752802 21.1961 0.357813 19.3562L6.4 16H0C6.40745e-07 11.7566 1.68536 7.68652 4.68594 4.68594C7.68652 1.68536 11.7566 -4.63489e-10 16 0Z" fill="#0094F7"/>
</g>
<path d="M50.9329 8.02182V21.5276C50.9329 23.199 50.4263 24.5199 49.413 25.4904C48.4175 26.4608 47.102 26.9461 45.4665 26.9461C43.831 26.9461 42.5066 26.4608 41.4933 25.4904C40.4978 24.5199 40 23.199 40 21.5276H43.0666C43.0843 22.3543 43.2888 23.0103 43.6799 23.4955C44.0887 23.9807 44.6843 24.2234 45.4665 24.2234C46.2487 24.2234 46.8442 23.9807 47.2531 23.4955C47.6619 22.9923 47.8664 22.3363 47.8664 21.5276V8.02182H50.9329Z" fill="#434348"/>
<path d="M62.2512 27C60.8646 27 59.6113 26.6855 58.4914 26.0565C57.3714 25.4095 56.4915 24.5109 55.8515 23.3607C55.2115 22.1926 54.8915 20.8447 54.8915 19.3171C54.8915 17.8074 55.2204 16.4685 55.8782 15.3004C56.5359 14.1322 57.4336 13.2336 58.5714 12.6046C59.7091 11.9756 60.9802 11.6611 62.3846 11.6611C63.789 11.6611 65.06 11.9756 66.1978 12.6046C67.3355 13.2336 68.2332 14.1322 68.891 15.3004C69.5487 16.4685 69.8776 17.8074 69.8776 19.3171C69.8776 20.8267 69.5399 22.1656 68.8643 23.3338C68.1888 24.5019 67.2644 25.4095 66.0911 26.0565C64.9356 26.6855 63.6556 27 62.2512 27ZM62.2512 24.3312C63.0334 24.3312 63.7623 24.1425 64.4378 23.7651C65.1311 23.3877 65.6911 22.8216 66.1178 22.0668C66.5444 21.3119 66.7577 20.3954 66.7577 19.3171C66.7577 18.2388 66.5533 17.3312 66.1444 16.5944C65.7356 15.8395 65.1934 15.2734 64.5178 14.896C63.8423 14.5186 63.1134 14.3299 62.3312 14.3299C61.549 14.3299 60.8202 14.5186 60.1447 14.896C59.4869 15.2734 58.9625 15.8395 58.5714 16.5944C58.1803 17.3312 57.9847 18.2388 57.9847 19.3171C57.9847 20.9166 58.3847 22.1566 59.1847 23.0372C60.0024 23.8999 61.0246 24.3312 62.2512 24.3312Z" fill="#434348"/>
<path d="M75.9226 14.1142C76.4381 13.3954 77.1403 12.8113 78.0292 12.362C78.9358 11.8947 79.9402 11.6611 81.0424 11.6611C82.3401 11.6611 83.5134 11.9756 84.5623 12.6046C85.6111 13.2336 86.4378 14.1322 87.0422 15.3004C87.6466 16.4506 87.9488 17.7715 87.9488 19.2632C87.9488 20.7548 87.6466 22.0937 87.0422 23.2798C86.4378 24.448 85.6022 25.3646 84.5356 26.0295C83.4868 26.6765 82.3224 27 81.0424 27C79.9047 27 78.8914 26.7754 78.0025 26.3261C77.1314 25.8768 76.4381 25.3017 75.9226 24.6008V26.7574H72.8827V6.80873H75.9226V14.1142ZM84.8556 19.2632C84.8556 18.2388 84.6423 17.3582 84.2156 16.6213C83.8068 15.8665 83.2557 15.3004 82.5624 14.923C81.8868 14.5276 81.158 14.3299 80.3758 14.3299C79.6114 14.3299 78.8825 14.5276 78.1892 14.923C77.5137 15.3184 76.9626 15.8935 76.5359 16.6483C76.127 17.4031 75.9226 18.2927 75.9226 19.3171C75.9226 20.3415 76.127 21.2401 76.5359 22.0128C76.9626 22.7677 77.5137 23.3427 78.1892 23.7381C78.8825 24.1335 79.6114 24.3312 80.3758 24.3312C81.158 24.3312 81.8868 24.1335 82.5624 23.7381C83.2557 23.3248 83.8068 22.7317 84.2156 21.9589C84.6423 21.1861 84.8556 20.2875 84.8556 19.2632Z" fill="#434348"/>
<path d="M103.914 13.6021C103.914 14.5546 103.692 15.4531 103.248 16.2978C102.803 17.1425 102.092 17.8344 101.115 18.3736C100.137 18.8947 98.8835 19.1553 97.3547 19.1553H93.9948V26.7574H90.955V8.02182H97.3547C98.7769 8.02182 99.9768 8.27343 100.955 8.77664C101.95 9.26187 102.688 9.92683 103.168 10.7715C103.666 11.6162 103.914 12.5597 103.914 13.6021ZM97.3547 16.6483C98.5102 16.6483 99.3724 16.3877 99.9413 15.8665C100.51 15.3273 100.795 14.5725 100.795 13.6021C100.795 11.5533 99.648 10.5289 97.3547 10.5289H93.9948V16.6483H97.3547Z" fill="#434348"/>
<path d="M108.36 9.93582C107.809 9.93582 107.347 9.74711 106.974 9.3697C106.6 8.9923 106.414 8.52503 106.414 7.96791C106.414 7.41078 106.6 6.94352 106.974 6.56611C107.347 6.1887 107.809 6 108.36 6C108.894 6 109.347 6.1887 109.72 6.56611C110.094 6.94352 110.28 7.41078 110.28 7.96791C110.28 8.52503 110.094 8.9923 109.72 9.3697C109.347 9.74711 108.894 9.93582 108.36 9.93582ZM109.854 11.9037V26.7574H106.814V11.9037H109.854Z" fill="#434348"/>
<path d="M116.885 6.80873V26.7574H113.845V6.80873H116.885Z" fill="#434348"/>
<path d="M127.249 27C125.862 27 124.609 26.6855 123.489 26.0565C122.369 25.4095 121.489 24.5109 120.849 23.3607C120.209 22.1926 119.889 20.8447 119.889 19.3171C119.889 17.8074 120.218 16.4685 120.876 15.3004C121.533 14.1322 122.431 13.2336 123.569 12.6046C124.707 11.9756 125.978 11.6611 127.382 11.6611C128.787 11.6611 130.058 11.9756 131.195 12.6046C132.333 13.2336 133.231 14.1322 133.889 15.3004C134.546 16.4685 134.875 17.8074 134.875 19.3171C134.875 20.8267 134.537 22.1656 133.862 23.3338C133.186 24.5019 132.262 25.4095 131.089 26.0565C129.933 26.6855 128.653 27 127.249 27ZM127.249 24.3312C128.031 24.3312 128.76 24.1425 129.435 23.7651C130.129 23.3877 130.689 22.8216 131.115 22.0668C131.542 21.3119 131.755 20.3954 131.755 19.3171C131.755 18.2388 131.551 17.3312 131.142 16.5944C130.733 15.8395 130.191 15.2734 129.515 14.896C128.84 14.5186 128.111 14.3299 127.329 14.3299C126.547 14.3299 125.818 14.5186 125.142 14.896C124.484 15.2734 123.96 15.8395 123.569 16.5944C123.178 17.3312 122.982 18.2388 122.982 19.3171C122.982 20.9166 123.382 22.1566 124.182 23.0372C125 23.8999 126.022 24.3312 127.249 24.3312Z" fill="#434348"/>
<path d="M141.427 14.4108V22.6329C141.427 23.19 141.551 23.5944 141.8 23.846C142.067 24.0796 142.511 24.1964 143.133 24.1964H145V26.7574H142.6C141.231 26.7574 140.182 26.4339 139.454 25.7869C138.725 25.1399 138.36 24.0886 138.36 22.6329V14.4108H136.627V11.9037H138.36V8.21053H141.427V11.9037H145V14.4108H141.427Z" fill="#434348"/>
<defs>
<clipPath id="clip0_17_211">
<rect width="32" height="32" fill="white"/>
</clipPath>
</defs>
</svg>
